<svg width="100%" height="100%" viewBox="0 0 137 40" fill="none" xmlns="http://www.w3.org/2000/svg"><g clip-path="url(#a)" fill="#000"><path d="M17.032 27.535c0-2.995-1.78-5.155-6.248-5.667 0-.607 0-1.194.02-1.744H6.334c0 .569.02 1.156.02 1.744-4.412.53-6.192 2.672-6.192 5.667 0 3.033 1.818 5.156 6.191 5.667 0 .588-.019 1.157-.019 1.706h4.468c-.019-.53-.019-1.1-.038-1.687 4.468-.511 6.267-2.634 6.267-5.686Zm-6.267 1.915c0-.72 0-1.422.02-2.123 0-.55.018-1.119.018-1.668 1.23.303 1.742.947 1.742 1.876 0 .967-.53 1.611-1.78 1.915ZM4.65 27.535c0-.929.511-1.573 1.742-1.876v3.771c-1.23-.303-1.742-.947-1.742-1.895ZM59.253 35.098c2.82 0 6.588-.72 7.99-4.113-1.401-.607-2.803-1.251-3.976-1.877-.587 1.498-1.742 2.18-3.863 2.18-2.65 0-3.786-1.422-3.88-3.203-.096-1.763.889-3.545 3.596-3.545 1.42 0 3.351.531 4.147 2.085 1.192-.606 2.48-1.232 3.994-1.762-1.495-3.033-4.506-4.113-8.008-4.113-5.964 0-8.33 3.051-8.33 7.335 0 4.34 2.442 7.013 8.33 7.013ZM84.731 27.535c0-2.995-1.78-5.155-6.247-5.667 0-.607 0-1.194.019-1.744h-4.469c0 .569.02 1.156.02 1.744-4.412.53-6.192 2.672-6.192 5.667 0 3.033 1.818 5.156 6.192 5.667 0 .588-.02 1.157-.02 1.706h4.469c-.02-.53-.02-1.1-.038-1.687 4.468-.511 6.266-2.634 6.266-5.686Zm-6.266 1.915c0-.72 0-1.422.019-2.123 0-.55.019-1.119.019-1.668 1.23.303 1.742.947 1.742 1.876 0 .967-.53 1.611-1.78 1.915Zm-6.115-1.915c0-.929.51-1.573 1.741-1.876v3.771c-1.23-.303-1.741-.947-1.741-1.895ZM94.234 35.098c6.078 0 8.444-2.824 8.444-7.184 0-4.284-2.366-7.165-8.444-7.165-6.058 0-8.425 2.882-8.425 7.165 0 4.34 2.443 7.184 8.425 7.184Zm0-3.867c-2.82 0-3.938-1.118-3.938-3.317 0-2.16 1.099-3.298 3.938-3.298 2.86 0 3.957 1.137 3.957 3.298 0 2.218-1.098 3.317-3.957 3.317ZM108.577 21.166v-.018h-4.658c.19 4.587.19 9.173 0 13.76h4.658v-3.336h3.938c5.377 0 6.721-2.198 6.721-5.307 0-2.919-1.344-5.099-6.721-5.099h-3.938Zm0 6.748V24.92h2.613c3.124 0 3.767.266 3.767 1.479 0 1.232-.719 1.516-3.767 1.516h-2.613ZM135.219 21.166l-13.324-.018c0 3.146.076 6.88-.151 8.093-.284 1.535-.834 2.085-1.894 2.293h-.946v6.559h4.487v-2.806h8.879v2.749h4.485v-6.502h-1.536V21.167Zm-9.064 9.553c.397-2.104.322-3.961.36-5.856h3.914v6.671h-4.482c.094-.265.151-.53.208-.815Z"/><path fill-rule="evenodd" clip-rule="evenodd" d="M20.207 33.195c1.363 1.251 3.49 1.877 6.38 1.877 2.928 0 5.068-.626 6.418-1.877 1.351-1.25 2.026-3.02 2.026-5.307 0-2.25-.681-4.006-2.044-5.27-1.351-1.263-3.484-1.895-6.4-1.895-2.903 0-5.036.632-6.399 1.896-1.35 1.263-2.026 3.02-2.026 5.269 0 2.274.682 4.043 2.045 5.307Zm9.41-2.786c-.619.53-1.629.796-3.03.796-1.388 0-2.392-.272-3.01-.815-.619-.544-.928-1.378-.928-2.502 0-1.112.31-1.94.928-2.483.618-.543 1.622-.815 3.01-.815 1.401 0 2.411.272 3.03.815.618.543.927 1.37.927 2.483 0 1.137-.309 1.977-.928 2.52Zm11.533 4.473v-5.517h.994c1.49 1.908 2.431 3.357 3.736 5.552h5.81c-2.04-2.78-3.285-4.416-5.628-6.94v-.684l5.382-6.172h-5.708l-.279.4h-.001v.002c-.897 1.284-1.959 2.805-3.738 4.564-.253 0-.442-.006-.568-.019v-4.947h-4.715c.101 2.452.152 4.745.152 6.88 0 2.136-.05 4.43-.152 6.881h4.715Z"/></g><g clip-path="url(#b)"><path d="m79.427 3.594 12.37 5.73L90.304 2l22.622 16.228H82.618l-3.19-14.634Z" fill="#F90"/><path fill-rule="evenodd" clip-rule="evenodd" d="M105.03 18.228c.003-.431-.022-.876-.077-1.33-.409-3.35-2.321-5.872-4.27-5.635-1.95.238-3.199 3.146-2.79 6.495.024.159.051.316.081.47h7.056Z" fill="#fff"/><path fill-rule="evenodd" clip-rule="evenodd" d="M101.205 18.228c.017-.277.009-.57-.028-.87-.19-1.563-1.08-2.74-1.986-2.63-.907.11-1.487 1.467-1.296 3.03.016.162.04.32.07.47h3.24Z" fill="#000"/><path fill-rule="evenodd" clip-rule="evenodd" d="M97.629 18.228a10.715 10.715 0 0 0-.047-.47c-.409-3.35-2.32-5.872-4.27-5.635-1.852.226-3.144 2.961-2.919 6.105h7.236Z" fill="#fff"/><path fill-rule="evenodd" clip-rule="evenodd" d="M93.742 18.228a4.852 4.852 0 0 0-.035-.67c-.19-1.563-1.08-2.741-1.987-2.63-.874.106-1.507 1.78-1.38 3.3h3.402Z" fill="#000"/><path d="m116.483 11.69-16.696 6.538h13.453l3.243-6.537Z" fill="#F90"/><path d="m116.482 11.69-4.161 1.631 2.554 1.622 1.607-3.252Z" fill="#000"/></g><defs><clipPath id="a"><path fill="#fff" transform="translate(0 17.838)" d="M0 0h137v20.247H0z"/></clipPath><clipPath id="b"><path fill="#fff" transform="translate(79.427 2)" d="M0 0h37.023v16.165H0z"/></clipPath></defs></svg>